<svg width="4" height="4" viewBox="0 0 4 4" fill="none" xmlns="http://www.w3.org/2000/svg">
<path d="M1.857 0.911608C2.2163 1.04791 2.4745 1.21471 2.7762 1.44801C2.875 1.52271 2.9739 1.59751 3.0757 1.67451C3.3156 1.89521 3.3156 1.89521 3.4425 2.26531C3.2829 2.51301 3.2829 2.51301 3.0459 2.77431C2.9697 2.86111 2.8934 2.94791 2.8149 3.03741C2.4992 3.29761 2.3335 3.36671 1.9195 3.37571C1.5566 3.21621 1.5566 3.21621 1.1897 2.98251C1.0673 2.90691 0.944898 2.83141 0.818798 2.75351C0.523398 2.51211 0.523398 2.51211 0.385498 2.27301C0.402898 1.86771 0.630898 1.70451 0.919998 1.42481C1.0198 1.32481 1.1196 1.22471 1.2224 1.12171C1.5387 0.908207 1.5387 0.908208 1.857 0.911608Z" fill="#268E2F"/>
</svg>
