<svg width="9" height="8" viewBox="0 0 9 8" fill="none" xmlns="http://www.w3.org/2000/svg">
<path d="M4.02764 0.853046C4.15354 0.852846 4.15354 0.852846 4.28194 0.852646C4.45934 0.852546 4.63674 0.852746 4.81414 0.853346C5.08204 0.853946 5.34994 0.853344 5.61784 0.852544C6.49904 0.852144 7.36094 0.873746 8.23434 0.992746C8.16464 1.73895 7.99264 2.38764 7.72674 3.09014C7.65424 3.08124 7.58174 3.07234 7.50704 3.06314C5.88594 2.84994 5.88594 2.84994 4.29984 3.09014C4.25794 3.17164 4.21604 3.25305 4.17294 3.33695C4.32904 3.33125 4.48504 3.32545 4.64584 3.31955C4.85314 3.31495 5.06034 3.31045 5.26764 3.30605C5.37014 3.30195 5.47274 3.29784 5.57844 3.29354C6.27444 3.28254 6.66884 3.37485 7.21904 3.83045C7.52044 4.41655 7.38784 5.16714 7.21104 5.77364C6.85814 6.34904 6.47854 6.74894 5.83624 7.01414C5.07644 7.17514 4.42684 6.88654 3.73294 6.61274C3.04444 6.34144 2.35164 6.13124 1.63444 5.94324C1.53344 5.91674 1.43244 5.89025 1.32834 5.86295C1.09214 5.80165 0.855641 5.74125 0.619141 5.68105C0.661041 5.51825 0.70284 5.35535 0.74604 5.18755C1.87694 5.18755 3.00774 5.18755 4.17294 5.18755C4.21484 5.10615 4.25664 5.02475 4.29984 4.94085C4.12514 4.94725 4.12514 4.94725 3.94684 4.95385C2.26924 4.98985 2.26924 4.98985 1.50754 4.57065C1.14234 4.12965 1.10184 3.77664 1.13474 3.22894C1.25584 2.40484 1.50744 1.75695 2.20564 1.24725C2.79234 0.864845 3.33024 0.853646 4.02764 0.853046Z" fill="#9CBE46"/>
</svg>
