<svg width="8" height="7" viewBox="0 0 8 7" fill="none" xmlns="http://www.w3.org/2000/svg">
<path d="M1.54625 0.992672C2.32995 0.980472 3.11355 0.97157 3.89735 0.96557C4.16395 0.96317 4.43045 0.959771 4.69695 0.955471C5.08035 0.949471 5.46375 0.946671 5.84725 0.944471C6.02555 0.940671 6.02555 0.940671 6.20745 0.936771C6.75195 0.936571 7.04835 0.943072 7.52035 1.22707C7.99115 1.72497 7.93535 2.18317 7.92655 2.83707C7.87525 3.40157 7.76025 3.63897 7.38465 4.07717C6.90705 4.38727 6.41965 4.57047 5.86155 4.69397C5.98725 4.89757 6.11285 5.10117 6.24235 5.31087C5.92245 5.35267 5.60255 5.39367 5.28255 5.43427C5.19305 5.44607 5.10365 5.45777 5.01155 5.46997C4.44345 5.54117 3.89605 5.56937 3.32315 5.55767C3.28125 5.47617 3.23935 5.39477 3.19625 5.31087C3.15435 5.43307 3.11245 5.55517 3.06935 5.68107C2.70185 5.74337 2.33435 5.80487 1.96665 5.86607C1.86305 5.88377 1.75935 5.90137 1.65265 5.91957C1.50105 5.94467 1.50105 5.94467 1.34645 5.97017C1.25405 5.98567 1.16165 6.00117 1.06645 6.01717C0.758548 6.05427 0.460146 6.05667 0.150146 6.05117C0.328446 5.39017 0.506848 4.72927 0.685448 4.06837C0.746148 3.84357 0.806848 3.61867 0.867548 3.39387C0.954648 3.07067 1.04195 2.74767 1.12935 2.42457C1.16995 2.27357 1.16995 2.27357 1.21145 2.11957C1.31415 1.74027 1.41865 1.36497 1.54625 0.992672ZM3.83085 2.84337C3.74705 3.16907 3.66335 3.49477 3.57705 3.83037C3.78045 3.84037 3.98415 3.84757 4.18785 3.85347C4.30115 3.85777 4.41455 3.86207 4.53135 3.86647C4.85145 3.85507 4.85145 3.85507 5.08025 3.66457C5.26465 3.45587 5.26465 3.45587 5.18735 3.12867C5.14415 2.98747 5.14415 2.98747 5.10005 2.84337C4.68125 2.84337 4.26235 2.84337 3.83085 2.84337Z" fill="#6FAC3E"/>
</svg>
