<svg width="5" height="6" viewBox="0 0 5 6" fill="none" xmlns="http://www.w3.org/2000/svg">
<path d="M1.86558 -0.00732422C2.78708 -0.00732422 3.70848 -0.00732422 4.65788 -0.00732422C4.56848 0.600976 4.46668 1.14118 4.30538 1.72868C4.28368 1.80808 4.26188 1.88757 4.23948 1.96947C4.19378 2.13607 4.14778 2.30258 4.10158 2.46898C4.03118 2.72248 3.96188 2.97618 3.89268 3.22988C3.84788 3.39268 3.80298 3.55537 3.75808 3.71807C3.69748 3.93757 3.69748 3.93758 3.63558 4.16158C3.52938 4.51208 3.42178 4.84387 3.26178 5.17447C2.43708 5.55297 1.35838 5.44797 0.469482 5.42127C0.552682 4.75297 0.702182 4.12307 0.886482 3.47467C0.914482 3.37457 0.942481 3.27448 0.971281 3.17138C1.05998 2.85448 1.14948 2.53787 1.23898 2.22117C1.29958 2.00517 1.36018 1.78927 1.42068 1.57327C1.56838 1.04617 1.71698 0.519476 1.86558 -0.00732422Z" fill="#5EA53A"/>
</svg>
