<svg width="5" height="4" viewBox="0 0 5 4" fill="none" xmlns="http://www.w3.org/2000/svg">
<path d="M2.3158 0.000935694C2.4291 0.00173569 2.5424 0.00252563 2.6591 0.00334563C2.836 0.00644563 2.836 0.00644556 3.0164 0.00961556C3.1357 0.0107256 3.2551 0.0118358 3.378 0.0129858C3.6726 0.0158958 3.9672 0.0199555 4.2618 0.0250355C4.1956 0.781926 4.0169 1.40101 3.7144 2.09931C3.6769 2.19179 3.6393 2.28427 3.6006 2.37956C3.2277 3.25582 3.2277 3.25582 2.7387 3.47958C2.3183 3.55139 2.3183 3.55139 1.8503 3.57983C1.6958 3.5908 1.5414 3.60177 1.3822 3.61308C0.9811 3.60342 0.785502 3.56475 0.454102 3.35621C0.604202 2.28953 0.8801 1.25237 1.3426 0.271785C1.7492 0.00824541 1.8498 -0.00483431 2.3158 0.000935694Z" fill="#CACACA"/>
</svg>
