<svg width="5" height="3" viewBox="0 0 5 3" fill="none" xmlns="http://www.w3.org/2000/svg">
<path d="M2.08117 0.0185547C3.0669 0.0369547 3.96287 0.421955 4.87347 0.758855C4.93047 1.31925 4.77827 1.57776 4.43717 2.02346C4.35617 2.13096 4.27517 2.23846 4.19177 2.34926C3.98497 2.60946 3.98497 2.60946 3.85807 2.73286C3.17974 2.77226 2.61429 2.67266 1.97012 2.49386C1.88438 2.47126 1.79865 2.44875 1.71032 2.42565C1.08468 2.25765 1.08468 2.25765 0.938876 2.11595C0.869396 1.56305 1.03243 1.29816 1.36724 0.859056C1.44675 0.752956 1.52627 0.646956 1.60819 0.537656C1.82733 0.265356 1.82733 0.265355 2.08117 0.0185547Z" fill="#1E8B2D"/>
</svg>
