<svg width="4" height="3" viewBox="0 0 4 3" fill="none" xmlns="http://www.w3.org/2000/svg">
<path d="M3.71575 0.271834C3.86449 0.626034 3.85634 0.972134 3.8506 1.35133C3.84945 1.44993 3.84831 1.54853 3.84713 1.65013C3.84566 1.72453 3.84418 1.79903 3.84267 1.87563C3.23163 2.13733 2.61921 2.37043 1.98644 2.57743C1.90497 2.60513 1.82349 2.63293 1.73954 2.66153C1.2877 2.80953 0.893181 2.92053 0.415801 2.86273C0.00944057 2.46773 0.0262805 2.01973 0.0112305 1.48243C0.0350305 1.01203 0.0350308 1.01203 0.288871 0.765334C0.760951 0.602034 1.2481 0.487733 1.7326 0.364333C1.93335 0.309933 1.93335 0.309933 2.13816 0.254433C2.26708 0.221333 2.396 0.188235 2.52883 0.154234C2.64686 0.123434 2.76488 0.0927338 2.88648 0.0610338C3.2576 0.0195338 3.41104 0.067734 3.71575 0.271834Z" fill="#B1B1B1"/>
</svg>
