<svg width="4" height="4" viewBox="0 0 4 4" fill="none" xmlns="http://www.w3.org/2000/svg">
<path d="M2.69658 0.271484C3.12988 0.368084 3.46218 0.496584 3.83888 0.726484C3.96578 1.09658 3.96578 1.09659 3.75058 1.53329C3.64928 1.70209 3.54638 1.87008 3.44228 2.03738C3.39248 2.12288 3.34278 2.20848 3.29158 2.29668C2.91558 2.90808 2.91558 2.90808 2.50968 3.08078C2.12788 3.06868 1.86388 2.98098 1.51468 2.83158C1.40258 2.78468 1.29048 2.73778 1.17498 2.68938C1.09078 2.65238 1.00648 2.61529 0.919678 2.57709C1.03038 2.07859 1.24838 1.76128 1.55428 1.34338C1.64138 1.21118 1.64138 1.21119 1.73028 1.07639C2.21308 0.379286 2.21308 0.379284 2.69658 0.271484Z" fill="#54A138"/>
</svg>
