<svg width="4" height="3" viewBox="0 0 4 3" fill="none" xmlns="http://www.w3.org/2000/svg">
<path d="M3.58882 0.434263C3.59915 0.670663 3.60651 0.907163 3.61262 1.14366C3.61925 1.34116 3.61925 1.34116 3.62601 1.54276C3.58245 1.97856 3.54979 2.12266 3.20806 2.40826C2.84534 2.54006 2.47686 2.61356 2.0975 2.68586C1.9977 2.70716 1.8979 2.72846 1.79507 2.75046C1.19667 2.87226 0.645903 2.92406 0.0350332 2.90176C0.0247832 2.57786 0.0172228 2.25426 0.0112328 1.93016C0.00804278 1.83816 0.00485302 1.74606 0.00157302 1.65116C-0.00214698 1.38366 -0.00214684 1.38366 0.0350332 0.927763C0.523103 0.611463 0.955213 0.563462 1.52635 0.472862C1.62616 0.455262 1.72596 0.437663 1.82878 0.419563C2.45507 0.317963 2.9656 0.313563 3.58882 0.434263Z" fill="#288E30"/>
</svg>
