<svg width="3" height="3" viewBox="0 0 3 3" fill="none" xmlns="http://www.w3.org/2000/svg">
<path d="M2.35096 0.165424C2.59056 0.173024 2.59056 0.173024 2.83486 0.180824C2.98146 0.685424 2.94096 0.965324 2.73176 1.44542C2.68646 1.55292 2.64116 1.66052 2.59446 1.77122C2.45406 2.03152 2.45406 2.03152 2.20026 2.15492C2.00476 2.16342 1.80896 2.16532 1.61326 2.16262C1.45766 2.16092 1.45766 2.16092 1.29896 2.15922C1.21946 2.15782 1.13986 2.15632 1.05796 2.15492C0.89176 1.70942 0.97026 1.46072 1.15316 1.02902C1.21896 0.868324 1.21896 0.868324 1.28606 0.704224C1.54516 0.234724 1.83596 0.149024 2.35096 0.165424Z" fill="#DEDEDE"/>
</svg>
