<svg width="35" height="4" viewBox="0 0 35 4" fill="none" xmlns="http://www.w3.org/2000/svg">
<path d="M32.6247 2.65505C32.7088 2.69455 32.793 2.73405 32.8797 2.77475C33.436 3.04665 33.8808 3.36285 34.346 3.76545C33.9108 3.91065 33.6582 3.86565 33.226 3.72505C33.107 3.68745 32.9879 3.64995 32.8652 3.61135C32.6754 3.55025 32.6754 3.55025 32.4819 3.48785C27.8543 2.05585 23.0242 2.37585 18.2503 2.72695C16.2997 2.86705 14.358 2.92995 12.4021 2.93855C12.134 2.93975 11.866 2.94155 11.5979 2.94395C9.16216 2.96305 6.80936 2.72795 4.44016 2.16935C4.24216 2.12505 4.24216 2.12505 4.04006 2.07995C1.50176 1.49765 1.50176 1.49765 0.584961 0.804449C0.996661 0.674349 1.26436 0.691849 1.68266 0.790949C1.79836 0.817349 1.91406 0.84365 2.03326 0.87085C2.21946 0.91435 2.21946 0.914349 2.40946 0.958649C6.93326 1.95725 11.1399 1.61685 15.6807 0.912449C21.445 0.022049 27.288 0.12575 32.6247 2.65505Z" fill="#7FB241"/>
</svg>
