<svg width="4" height="4" viewBox="0 0 4 4" fill="none" xmlns="http://www.w3.org/2000/svg">
<path d="M3.01587 1.03814C3.26717 1.45704 3.27867 1.79684 3.26967 2.27194C2.94547 2.44114 2.62027 2.60774 2.29397 2.77314C2.20247 2.82124 2.11087 2.86934 2.01657 2.91894C1.60937 3.12314 1.33437 3.26044 0.870565 3.25314C0.604365 3.13554 0.604365 3.13554 0.366365 2.72684C0.184655 2.14794 0.184656 2.14794 0.350466 1.77834C0.581566 1.63524 0.581565 1.63524 0.874065 1.52394C0.977065 1.48384 1.08017 1.44374 1.18637 1.40244C1.28747 1.36364 1.38857 1.32484 1.49277 1.28484C1.65147 1.21044 1.81017 1.13594 1.96877 1.06124C2.40257 0.907138 2.59537 0.851339 3.01587 1.03814Z" fill="#C8C8C8"/>
</svg>
