<svg width="6" height="4" viewBox="0 0 6 4" fill="none" xmlns="http://www.w3.org/2000/svg">
<path d="M4.35046 0.739233C4.58346 0.945533 4.58346 0.945534 4.77876 1.20183C4.84526 1.28523 4.91166 1.36853 4.98006 1.45443C5.11196 1.72623 5.11196 1.72623 5.10896 2.04043C4.94186 2.44863 4.73716 2.55354 4.35046 2.77494C4.22446 2.84744 4.09849 2.91993 3.96869 2.99473C3.84337 3.06463 3.71804 3.13463 3.58892 3.20673C3.48192 3.27163 3.37492 3.33653 3.26468 3.40333C3.16749 3.46063 3.07031 3.51793 2.97018 3.57683C2.88412 3.62773 2.79806 3.67863 2.7094 3.73113C2.35756 3.85503 2.1642 3.81563 1.81203 3.70023C1.3565 3.34463 1.08315 2.96134 0.939444 2.41254C0.934214 2.30814 0.928974 2.20383 0.923584 2.09633C1.54741 1.69613 2.1885 1.33733 2.85119 1.00143C2.92656 0.961635 3.00192 0.921835 3.07956 0.880835C3.55048 0.647135 3.85095 0.541633 4.35046 0.739233Z" fill="#C6C6C6"/>
</svg>
