<svg width="4" height="5" viewBox="0 0 4 5" fill="none" xmlns="http://www.w3.org/2000/svg">
<path d="M3.29631 0.934228C3.45861 1.24973 3.43761 1.47303 3.43561 1.82583C3.43521 1.95303 3.43481 2.08023 3.43441 2.21133C3.43331 2.34463 3.43231 2.47793 3.43121 2.61523C3.43061 2.74943 3.43001 2.88363 3.42941 3.02193C3.42801 3.35423 3.42591 3.68643 3.42331 4.01863C2.74271 4.34853 2.22741 4.44123 1.47181 4.41963C1.38011 4.41893 1.28831 4.41833 1.19371 4.41763C0.523813 4.40793 0.523812 4.40793 0.377112 4.26533C0.256712 1.96373 0.256713 1.96373 0.789113 1.20123C1.48341 0.753228 2.51111 0.735128 3.29631 0.934228Z" fill="#74AE3F"/>
</svg>
