<svg width="4" height="3" viewBox="0 0 4 3" fill="none" xmlns="http://www.w3.org/2000/svg">
<path d="M2.11147 0.69664C2.25117 0.69444 2.25117 0.694441 2.39357 0.692141C2.88067 0.690841 3.10887 0.69794 3.52347 0.96654C3.40947 1.92714 3.40947 1.92714 3.14267 2.32374C2.85127 2.46534 2.68797 2.46134 2.36437 2.45914C2.26207 2.45874 2.15987 2.45834 2.05447 2.45794C1.94767 2.45694 1.84077 2.45584 1.73067 2.45484C1.62287 2.45424 1.51507 2.45374 1.40397 2.45314C1.13747 2.45164 0.870874 2.44944 0.604274 2.44714C0.467474 1.99554 0.504174 1.80344 0.715374 1.37524C0.762174 1.27804 0.808974 1.18094 0.857174 1.08084C1.13467 0.565239 1.57057 0.69714 2.11147 0.69664Z" fill="#2B9030"/>
</svg>
