<svg width="3" height="3" viewBox="0 0 3 3" fill="none" xmlns="http://www.w3.org/2000/svg">
<path d="M1.84274 0.844308C2.11514 1.04241 2.19094 1.18041 2.30334 1.49011C2.33554 1.57371 2.36784 1.65741 2.40104 1.74361C2.46344 2.04431 2.44924 2.20981 2.32714 2.49251C1.79634 2.77041 1.40044 2.88261 0.804039 2.86271C0.739939 2.66491 0.676639 2.46701 0.613739 2.26891C0.560639 2.10361 0.560639 2.10361 0.506639 1.93491C0.423339 1.62891 0.42334 1.62891 0.42334 1.25881C0.60184 1.16901 0.78204 1.08221 0.96274 0.996608C1.06284 0.947908 1.16294 0.899207 1.26614 0.849107C1.56564 0.765307 1.56564 0.765308 1.84274 0.844308Z" fill="#C2C2C2"/>
</svg>
