<svg width="5" height="6" viewBox="0 0 5 6" fill="none" xmlns="http://www.w3.org/2000/svg">
<path d="M2.3117 -0.00732422C3.1913 -0.00732422 4.0708 -0.00732422 4.9771 -0.00732422C4.8832 0.631476 4.7642 1.22658 4.5923 1.84528C4.555 1.98178 4.555 1.98177 4.517 2.12107C4.4381 2.40907 4.3585 2.69678 4.279 2.98458C4.2256 3.17958 4.1722 3.37468 4.1189 3.56968C4.0678 3.75568 4.0168 3.94178 3.9657 4.12778C3.9417 4.21488 3.9178 4.30198 3.8931 4.39178C3.7973 4.73848 3.6977 5.08067 3.5809 5.42127C3.1764 5.42847 2.7718 5.43287 2.3672 5.43667C2.1968 5.43977 2.1968 5.43978 2.0229 5.44298C1.347 5.44778 0.793298 5.39097 0.154099 5.17447C0.112199 4.84877 0.0702996 4.52308 0.0270996 4.18748C0.1398 4.19398 0.1398 4.19398 0.2547 4.20048C0.8802 4.22138 1.2984 4.21948 1.804 3.81738C2.0682 3.43218 2.0926 3.33217 2.0896 2.89207C2.0903 2.79667 2.0909 2.70117 2.0916 2.60287C2.074 2.30047 2.074 2.30048 1.804 1.96678C1.8258 1.68678 1.8258 1.68677 1.8992 1.37297C1.9221 1.27037 1.945 1.16778 1.9686 1.06218C2.0665 0.701076 2.1902 0.346976 2.3117 -0.00732422Z" fill="#52A038"/>
</svg>
