<svg width="5" height="5" viewBox="0 0 5 5" fill="none" xmlns="http://www.w3.org/2000/svg">
<path d="M2.15949 0.948039C2.69879 1.07214 3.01099 1.25854 3.45199 1.58184C3.65199 1.72394 3.65199 1.72394 3.85599 1.86904C4.15799 2.16784 4.15799 2.16784 4.24029 2.47244C4.12329 2.91644 3.88569 3.11794 3.54719 3.43244C3.43379 3.53994 3.32039 3.64744 3.20359 3.75824C2.88879 4.01844 2.88879 4.01844 2.50799 4.14184C2.14539 4.01314 1.81869 3.81214 1.48469 3.62524C1.34519 3.55114 1.34519 3.55114 1.20279 3.47554C1.11379 3.42654 1.02469 3.37744 0.932888 3.32694C0.851588 3.28214 0.770188 3.23744 0.686488 3.19134C0.437688 3.00124 0.344589 2.81904 0.223389 2.53794C0.439089 2.29454 0.655888 2.05244 0.875388 1.81214C1.06469 1.60304 1.24799 1.38884 1.42919 1.17314C1.74649 0.934039 1.74649 0.934039 2.15949 0.948039Z" fill="#1D8A2D"/>
</svg>
