<svg width="4" height="4" viewBox="0 0 4 4" fill="none" xmlns="http://www.w3.org/2000/svg">
<path d="M2.50327 0.77103C2.91867 0.94923 3.06457 1.25573 3.28507 1.62893C3.09277 2.15943 2.68337 2.40103 2.22217 2.70073C2.14887 2.75043 2.07557 2.80013 2.00007 2.85133C1.63477 3.09333 1.31587 3.29373 0.873572 3.35613C0.742072 3.20353 0.612971 3.04893 0.484871 2.89353C0.412771 2.80763 0.340572 2.72173 0.266272 2.63323C0.112072 2.36913 0.112072 2.36913 0.140472 2.12433C0.313972 1.68643 0.759672 1.50893 1.15917 1.28193C1.28657 1.20423 1.28657 1.20423 1.41647 1.12503C1.80377 0.90053 2.04577 0.76373 2.50327 0.77103Z" fill="#C7C7C7"/>
</svg>
