<svg width="4" height="5" viewBox="0 0 4 5" fill="none" xmlns="http://www.w3.org/2000/svg">
<path d="M1.57437 0.905762C3.23707 0.936362 3.23707 0.936361 3.61557 1.30436C3.56707 1.96196 3.38347 2.56906 3.17927 3.19356C3.15167 3.28176 3.12417 3.36996 3.09577 3.46076C2.88577 4.11116 2.88577 4.11116 2.60017 4.38876C2.28497 4.41346 1.98707 4.42306 1.67207 4.41956C1.50507 4.42026 1.33797 4.42086 1.16587 4.42156C0.734168 4.39136 0.447068 4.32456 0.0617676 4.14196C0.125168 3.39066 0.301667 2.80406 0.624967 2.12176C0.664667 2.03406 0.704368 1.94646 0.745168 1.85616C1.16167 0.953961 1.16167 0.953962 1.57437 0.905762Z" fill="#67A83C"/>
</svg>
