<svg width="6" height="5" viewBox="0 0 6 5" fill="none" xmlns="http://www.w3.org/2000/svg">
<path d="M3.81683 0.114258C4.23933 0.257868 4.60882 0.418398 4.99582 0.636688C5.11732 0.704278 5.23892 0.771868 5.36412 0.841508C5.45462 0.893518 5.54512 0.945518 5.63832 0.999098C5.67402 1.27381 5.67402 1.27381 5.63832 1.61599C5.39642 1.88877 5.39642 1.88877 5.06722 2.15576C4.95122 2.2515 4.83523 2.34725 4.71563 2.44589C4.60133 2.53845 4.48693 2.63101 4.36913 2.72638C4.19163 2.88023 4.01442 3.03441 3.83762 3.18904C3.39412 3.56105 2.96782 3.91195 2.46532 4.20685C2.00372 4.16325 1.63523 4.01585 1.22783 3.80595C1.12903 3.75695 1.03023 3.70795 0.928326 3.65745C0.618726 3.41121 0.600723 3.22832 0.561523 2.84975C0.640023 2.81922 0.718523 2.78868 0.799423 2.75722C1.12492 2.57112 1.15702 2.43254 1.32302 2.10949C1.62692 1.74804 1.96383 1.41827 2.29873 1.08393C2.38703 0.990968 2.47522 0.898008 2.56622 0.802228C3.23012 0.141128 3.23013 0.141128 3.81683 0.114258Z" fill="#4D9E37"/>
</svg>
