<svg width="4" height="3" viewBox="0 0 4 3" fill="none" xmlns="http://www.w3.org/2000/svg">
<path d="M2.37329 0.122559C2.60829 0.328859 2.60829 0.328859 2.83339 0.585259C2.90829 0.668559 2.98329 0.75186 3.06049 0.83776C3.27219 1.12366 3.39528 1.39536 3.51558 1.72646C3.33718 1.85426 3.15708 1.97976 2.97618 2.10426C2.87608 2.17446 2.77588 2.24456 2.67278 2.31686C2.37328 2.46676 2.37328 2.46676 2.10658 2.45756C1.79578 2.31026 1.66648 2.13966 1.46898 1.86526C1.40578 1.77906 1.34269 1.69286 1.27759 1.60406C0.850486 0.99436 0.850485 0.994359 0.842285 0.747159C1.13429 0.196159 1.77079 -0.123841 2.37329 0.122559Z" fill="#C4C4C4"/>
</svg>
