<svg width="5" height="5" viewBox="0 0 5 5" fill="none" xmlns="http://www.w3.org/2000/svg">
<path d="M3.05597 0.566895C3.62697 0.751895 3.97467 1.04599 4.39657 1.45359C4.33097 1.95899 4.20027 2.2002 3.83087 2.5582C3.74187 2.6447 3.65297 2.73129 3.56137 2.82039C3.46787 2.90879 3.37437 2.99729 3.27807 3.08839C3.18597 3.17869 3.09397 3.26899 2.99917 3.36209C2.20867 4.12139 2.20867 4.1214 1.73117 4.1679C1.37617 3.9857 1.37617 3.9857 1.00139 3.7207C0.87639 3.6351 0.751389 3.5495 0.622609 3.4614C0.335049 3.1809 0.335049 3.1809 0.248779 2.8811C0.374699 2.4182 0.685619 2.1835 1.04898 1.8854C1.11524 1.8287 1.1815 1.77189 1.24977 1.71339C1.38357 1.59939 1.51837 1.48659 1.65417 1.37499C1.79217 1.26119 1.92857 1.14539 2.06327 1.02789C2.57127 0.592495 2.57127 0.592495 3.05597 0.566895Z" fill="#499D36"/>
</svg>
