<svg width="6" height="6" viewBox="0 0 6 6" fill="none" xmlns="http://www.w3.org/2000/svg">
<path d="M1.99655 -0.00732422C3.00175 -0.00732422 4.00695 -0.00732422 5.04265 -0.00732422C5.12635 0.481276 5.21015 0.969874 5.29645 1.47327C4.81925 1.56357 4.81925 1.56357 4.34205 1.65397C4.01275 1.71717 4.01275 1.71717 3.64645 1.84337C3.41345 2.67727 3.41345 2.67728 3.52755 3.51668C3.69335 4.10778 3.50445 4.50087 3.26575 5.05117C2.98265 5.01617 2.69975 4.97997 2.41695 4.94317C2.25935 4.92317 2.10185 4.90307 1.93955 4.88247C1.54245 4.81367 1.21955 4.71927 0.854248 4.55767C0.929948 3.59957 1.16125 2.71368 1.42535 1.78938C1.48645 1.57048 1.48645 1.57048 1.54885 1.34718C1.84975 0.277976 1.84975 0.277976 1.99655 -0.00732422Z" fill="#449A35"/>
</svg>
