<svg width="4" height="3" viewBox="0 0 4 3" fill="none" xmlns="http://www.w3.org/2000/svg">
<path d="M2.83481 0.356358C3.04451 0.740958 3.04451 0.740957 3.20761 1.20456C3.26371 1.35686 3.31981 1.50926 3.37761 1.66626C3.46941 2.08356 3.46941 2.08356 3.40741 2.37176C3.12391 2.67516 2.84561 2.70876 2.43811 2.79306C2.22951 2.83786 2.22951 2.83786 2.01671 2.88366C1.90971 2.90456 1.80271 2.92556 1.69251 2.94726C1.29651 2.52026 1.20911 2.11686 1.09751 1.55926C1.06561 1.40336 1.03371 1.24756 1.00081 1.08696C0.977809 0.967958 0.954708 0.849058 0.930908 0.726458C1.55461 0.253158 2.09411 -0.0691424 2.83481 0.356358Z" fill="#C5C5C5"/>
</svg>
