<svg width="4" height="4" viewBox="0 0 4 4" fill="none" xmlns="http://www.w3.org/2000/svg">
<path d="M2.44421 0.95093C2.82311 1.10163 2.95841 1.32563 3.18791 1.65113C3.30471 1.81263 3.30471 1.81263 3.42391 1.97743C3.60041 2.29123 3.60041 2.29123 3.60041 2.78473C3.37281 2.99913 3.37281 2.99913 3.06891 3.19333C2.97031 3.25903 2.87161 3.32473 2.77001 3.39243C2.38321 3.55683 2.21801 3.53883 1.82351 3.40153C1.57161 3.22233 1.57161 3.22233 1.34761 3.00063C1.27231 2.92873 1.19701 2.85683 1.11951 2.78273C0.903906 2.49653 0.855105 2.26963 0.808105 1.92103C0.993005 1.77943 1.17821 1.63813 1.36341 1.49693C1.51801 1.37883 1.51801 1.37883 1.67581 1.25843C2.12651 0.928531 2.12651 0.92853 2.44421 0.95093Z" fill="#278F30"/>
</svg>
