<svg width="5" height="4" viewBox="0 0 5 4" fill="none" xmlns="http://www.w3.org/2000/svg">
<path d="M2.93488 0.219865C3.18148 0.493645 3.39509 0.756845 3.60919 1.05264C3.66849 1.12934 3.72778 1.20594 3.78888 1.28494C4.03898 1.62534 4.19728 1.85094 4.22748 2.27344C4.00958 2.69474 3.67618 2.91664 3.28398 3.17324C3.21118 3.22544 3.13838 3.27764 3.06338 3.33154C2.72138 3.56054 2.51658 3.68814 2.09808 3.62384C1.71398 3.37714 1.43338 3.09784 1.12628 2.76454C1.01568 2.64654 0.905084 2.52844 0.791184 2.40694C0.552584 2.10714 0.443184 1.94564 0.396484 1.57704C2.19608 -0.0374256 2.19608 -0.0374253 2.93488 0.219865Z" fill="#1D8A2E"/>
</svg>
