<svg width="24" height="4" viewBox="0 0 24 4" fill="none" xmlns="http://www.w3.org/2000/svg">
<path d="M21.9333 2.3976C22.0354 2.4376 22.1376 2.4776 22.2429 2.5189C22.3364 2.558 22.4299 2.5972 22.5263 2.6376C22.6082 2.6716 22.6901 2.7057 22.7745 2.7408C23.0358 2.9119 23.1156 3.0899 23.2342 3.3691C23.125 3.3398 23.125 3.3398 23.0136 3.3099C22.7759 3.2464 22.5381 3.1835 22.3002 3.1209C22.0573 3.0569 21.8145 2.9926 21.5721 2.9269C21.2777 2.8471 20.9828 2.7688 20.6879 2.6906C20.5976 2.6657 20.5073 2.6409 20.4143 2.6153C18.2828 2.056 16.2252 1.9619 14.0285 1.9802C13.7327 1.9812 13.437 1.982 13.1413 1.9827C12.3685 1.9848 11.5957 1.989 10.8229 1.9938C9.58664 2.0011 8.35033 2.0053 7.11403 2.0093C6.68683 2.011 6.25953 2.0137 5.83233 2.0165C1.85693 2.0378 1.85693 2.0378 0.642334 1.7652C0.642334 1.6838 0.642334 1.6024 0.642334 1.5185C0.714734 1.518 0.787134 1.5175 0.861734 1.517C2.95683 1.4924 5.02323 1.3265 7.10703 1.1224C12.2116 0.624199 17.092 0.478999 21.9333 2.3976Z" fill="#95BC45"/>
</svg>
