<svg width="8" height="5" viewBox="0 0 8 5" fill="none" xmlns="http://www.w3.org/2000/svg">
<path d="M1.03469 -0.00732422C3.08699 -0.00732422 5.13928 -0.00732422 7.25378 -0.00732422C7.08628 0.644176 6.91879 1.29558 6.74609 1.96678C5.57339 1.96678 4.40058 1.96678 3.19228 1.96678C3.19228 2.08888 3.19228 2.21098 3.19228 2.33688C4.28128 2.33688 5.37029 2.33688 6.49229 2.33688C6.36539 3.32388 6.36539 3.32388 6.23849 3.81738C5.06569 3.81738 3.89298 3.81738 2.68468 3.81738C2.68468 3.93948 2.68468 4.06168 2.68468 4.18748C1.80508 4.18748 0.925487 4.18748 0.0192871 4.18748C0.162087 2.93828 0.162085 2.93828 0.352985 2.29398C0.388685 2.17148 0.424485 2.04907 0.461285 1.92287C0.506585 1.77197 0.551785 1.62098 0.598385 1.46548C0.814385 0.736475 0.814387 0.736476 1.03469 -0.00732422Z" fill="#86B542"/>
</svg>
