<svg width="3" height="3" viewBox="0 0 3 3" fill="none" xmlns="http://www.w3.org/2000/svg">
<path d="M1.91553 0.382156C2.04243 0.505556 2.04243 0.505556 2.05483 0.868456C2.05343 1.01586 2.05193 1.16336 2.05043 1.31526C2.04923 1.46296 2.04813 1.61076 2.04693 1.76296C2.04543 1.87726 2.04393 1.99166 2.04243 2.10946C1.63033 2.28766 1.31203 2.38656 0.860527 2.37166C0.706027 2.36656 0.551627 2.36146 0.392527 2.35626C0.389027 2.13776 0.386627 1.91926 0.384527 1.70076C0.383127 1.57916 0.381627 1.45746 0.380127 1.33206C0.392527 0.999056 0.392526 0.999055 0.519426 0.628955C0.988326 0.381455 1.38733 0.347156 1.91553 0.382156Z" fill="#60A53B"/>
</svg>
