<svg width="4" height="5" viewBox="0 0 4 5" fill="none" xmlns="http://www.w3.org/2000/svg">
<path d="M2.99637 0.999225C3.26827 1.39568 3.34797 1.68641 3.45647 2.14816C3.50607 2.35356 3.50607 2.35357 3.55657 2.56312C3.62797 2.95661 3.64457 3.31503 3.63097 3.71346C3.34567 3.85546 3.06007 3.99677 2.77427 4.13767C2.69377 4.17777 2.61327 4.21797 2.53037 4.25927C1.66457 4.68447 1.66457 4.68446 1.34637 4.70056C0.903566 4.42556 0.787165 3.94336 0.616565 3.48216C0.559665 3.33236 0.502766 3.18255 0.444066 3.02819C0.330966 2.60283 0.293965 2.39214 0.457965 1.98623C0.665665 1.80406 0.665666 1.80406 0.925966 1.66237C1.01777 1.61195 1.10957 1.56155 1.20407 1.5096C1.29297 1.46332 1.38177 1.41703 1.47327 1.36935C1.60417 1.29555 1.73507 1.22176 1.86997 1.14573C2.28097 0.980685 2.55607 0.940865 2.99637 0.999225Z" fill="#208C2E"/>
</svg>
