<svg width="4" height="3" viewBox="0 0 4 3" fill="none" xmlns="http://www.w3.org/2000/svg">
<path d="M2.49327 0.0811126C2.65477 0.0833326 2.81627 0.0855622 2.98267 0.0878522C3.16837 0.0921522 3.16837 0.0921525 3.35797 0.0965325C3.53187 0.603743 3.33677 0.921543 3.13587 1.39194C3.10217 1.47544 3.06847 1.55894 3.03367 1.64504C2.68387 2.48194 2.68387 2.48194 2.34257 2.68744C1.97227 2.72354 1.97227 2.72354 1.55727 2.71054C1.41937 2.70724 1.28137 2.70394 1.13927 2.70044C0.980975 2.69404 0.980973 2.69404 0.819473 2.68744C0.675273 2.49944 0.675274 2.49944 0.565674 2.19394C0.640974 1.86154 0.725973 1.57074 0.843273 1.25314C0.871573 1.16924 0.899775 1.08524 0.928875 0.998743C1.23837 0.126343 1.58987 0.0649926 2.49327 0.0811126Z" fill="#D0D0D0"/>
</svg>
