<svg width="4" height="4" viewBox="0 0 4 4" fill="none" xmlns="http://www.w3.org/2000/svg">
<path d="M2.92661 0.302867C3.17271 0.392927 3.41561 0.490967 3.65791 0.590067C3.53841 1.17107 3.21811 1.56067 2.86461 2.03207C2.80391 2.11707 2.74321 2.20207 2.68071 2.28967C2.22681 2.89767 2.22681 2.89767 1.81011 3.06347C1.46591 3.05697 1.21161 2.99717 0.88941 2.88027C0.73901 2.82707 0.73901 2.82707 0.58551 2.77277C0.51041 2.74467 0.43531 2.71647 0.35791 2.68747C0.43131 2.11287 0.68831 1.66757 0.98461 1.17617C1.03031 1.09757 1.07611 1.01897 1.12321 0.938066C1.57601 0.176036 2.02631 0.0401566 2.92661 0.302867Z" fill="#B3B3B3"/>
</svg>
