<svg width="4" height="5" viewBox="0 0 4 5" fill="none" xmlns="http://www.w3.org/2000/svg">
<path d="M3.56547 0.518634C3.57247 0.847674 3.57747 1.17657 3.58137 1.50564C3.58347 1.59741 3.58567 1.68917 3.58777 1.78372C3.59357 2.43164 3.51917 2.98502 3.31167 3.60305C2.97057 3.83438 2.97057 3.83438 2.55017 3.97317C2.40617 4.02152 2.26217 4.06987 2.11387 4.11968C1.65137 4.22222 1.24587 4.23868 0.773273 4.21993C0.534573 3.75584 0.617374 3.19612 0.614574 2.68543C0.611974 2.56607 0.609374 2.44671 0.606674 2.32374C0.605974 2.20915 0.605373 2.09456 0.604673 1.9765C0.603473 1.87146 0.602274 1.76643 0.601074 1.65821C0.656574 1.31965 0.750275 1.21827 1.02707 1.01214C1.39397 0.868044 1.39397 0.868044 1.82037 0.742254C1.95977 0.699794 2.09917 0.657324 2.24277 0.613574C2.69727 0.514204 3.10117 0.502024 3.56547 0.518634Z" fill="#278E2F"/>
</svg>
