<svg width="5" height="4" viewBox="0 0 5 4" fill="none" xmlns="http://www.w3.org/2000/svg">
<path d="M2.15795 0.0705209C2.94265 0.0578209 3.51625 0.31362 4.18865 0.68742C4.13585 1.42112 3.79965 1.90912 3.39545 2.50722C3.30435 2.64912 3.30435 2.64912 3.21145 2.79392C2.95405 3.17982 2.74755 3.47172 2.35185 3.72942C1.90915 3.78792 1.65035 3.67202 1.24575 3.49422C1.11305 3.43762 0.98035 3.38092 0.84365 3.32262C0.50795 3.15492 0.50795 3.15492 0.25415 2.90812C0.32365 2.36962 0.66975 1.98392 0.99185 1.55872C1.04755 1.48372 1.10325 1.40872 1.16065 1.33152C1.27055 1.18432 1.38145 1.03792 1.49325 0.89222C1.63675 0.70502 1.77635 0.515121 1.91555 0.324921C1.99555 0.241021 2.07555 0.157021 2.15795 0.0705209Z" fill="#58A339"/>
</svg>
