<svg width="5" height="5" viewBox="0 0 5 5" fill="none" xmlns="http://www.w3.org/2000/svg">
<path d="M3.03856 1.09665C3.33406 1.32945 3.57686 1.59516 3.82396 1.87546C3.88996 1.94726 3.95596 2.01906 4.02396 2.09306C4.20646 2.29306 4.38436 2.49626 4.56166 2.70056C4.64226 2.78886 4.72296 2.87706 4.80606 2.96806C4.94236 3.19406 4.94236 3.19405 4.91606 3.43475C4.72506 3.91475 4.21676 4.09565 3.77636 4.34295C3.68036 4.40065 3.58436 4.45825 3.48556 4.51765C3.05276 4.76475 2.75066 4.91625 2.24436 4.94395C1.77206 4.74585 1.56366 4.43775 1.30136 4.02685C1.22956 3.92065 1.22956 3.92065 1.15636 3.81235C1.01926 3.60815 0.886563 3.40115 0.753963 3.19405C0.677263 3.08785 0.600563 2.98155 0.521463 2.87215C0.373263 2.57715 0.373263 2.57716 0.359863 2.26396C0.566663 1.81636 0.922763 1.64605 1.34896 1.42055C1.46566 1.35255 1.46566 1.35255 1.58466 1.28315C2.11906 0.991255 2.45976 0.881354 3.03856 1.09665Z" fill="#C0C0C0"/>
</svg>
