<svg width="3" height="4" viewBox="0 0 3 4" fill="none" xmlns="http://www.w3.org/2000/svg">
<path d="M2.16949 0.719937C2.21139 0.923537 2.25329 1.12704 2.29649 1.33684C2.33829 1.25534 2.38019 1.17394 2.42339 1.09004C2.54899 1.09004 2.67469 1.09004 2.80409 1.09004C3.02629 1.52194 3.01859 1.97714 2.93109 2.44724C2.70899 2.77294 2.53389 2.86074 2.16949 3.06404C1.75989 3.11004 1.52259 3.11974 1.15419 2.94074C1.11229 2.81854 1.07039 2.69644 1.02729 2.57054C0.901592 2.52984 0.775894 2.48914 0.646494 2.44724C0.476694 1.68214 0.476694 1.68214 0.670294 1.23654C1.11579 0.713937 1.48689 0.689737 2.16949 0.719937Z" fill="#262626"/>
</svg>
