<svg width="5" height="4" viewBox="0 0 5 4" fill="none" xmlns="http://www.w3.org/2000/svg">
<path d="M3.56166 0.148305C3.94886 0.256175 4.32696 0.380685 4.70396 0.518435C4.74796 1.03518 4.66176 1.26316 4.32866 1.664C4.25026 1.75998 4.17176 1.85596 4.09096 1.95485C4.00786 2.05338 3.92486 2.1519 3.83936 2.25342C3.75776 2.35242 3.67616 2.45143 3.59216 2.55343C3.43996 2.73818 3.28716 2.92242 3.13346 3.106C2.99226 3.2771 2.85656 3.45255 2.72576 3.63131C2.54636 3.8496 2.54636 3.8496 2.29496 3.90647C1.62546 3.88113 1.03276 3.785 0.388661 3.60285C0.233861 3.17092 0.251361 3.00885 0.444661 2.58258C0.532361 2.43568 0.622162 2.29 0.713862 2.14546C0.760462 2.06948 0.807061 1.9935 0.855061 1.91521C2.12516 -0.127045 2.12516 -0.127045 3.56166 0.148305Z" fill="#BDBDBD"/>
</svg>
