<svg width="13" height="11" viewBox="0 0 13 11" fill="none" xmlns="http://www.w3.org/2000/svg">
<path d="M1.635 4.78122C4.85622 3.37779 7.0042 2.45256 8.07895 2.00553C11.1476 0.729185 11.7852 0.50747 12.2008 0.500071C12.2923 0.498539 12.4966 0.521192 12.629 0.628617C12.7408 0.719324 12.7716 0.841857 12.7863 0.927857C12.801 1.01386 12.8193 1.20977 12.8048 1.36285C12.6385 3.11007 11.9189 7.35012 11.5529 9.30704C11.398 10.1351 11.093 10.4127 10.7977 10.4399C10.156 10.4989 9.66876 10.0158 9.04726 9.60843C8.07474 8.97093 7.52533 8.57408 6.58133 7.952C5.49038 7.23308 6.1976 6.83795 6.81933 6.19219C6.98204 6.02319 9.80929 3.45159 9.86401 3.21831C9.87085 3.18913 9.8772 3.08038 9.81259 3.02295C9.74799 2.96553 9.65263 2.98516 9.58381 3.00078C9.48627 3.02292 7.93266 4.0498 4.92298 6.08142C4.48199 6.38424 4.08256 6.53178 3.72468 6.52405C3.33015 6.51552 2.57123 6.30097 2.00705 6.11758C1.31505 5.89264 0.765075 5.77372 0.812966 5.3917C0.837911 5.19272 1.11192 4.98923 1.635 4.78122Z" fill="white"/>
</svg>
