<svg width="13" height="10" viewBox="0 0 13 10" fill="none" xmlns="http://www.w3.org/2000/svg">
<path d="M12.58 2.07481C12.43 1.54981 12.055 1.1748 11.53 1.0248C10.63 0.799805 6.80501 0.799805 6.80501 0.799805C6.80501 0.799805 3.05501 0.799805 2.08 1.0248C1.55501 1.1748 1.18 1.54981 1.03 2.07481C0.880003 3.04981 0.880005 4.99981 0.880005 4.99981C0.880005 4.99981 0.880007 6.94981 1.10501 7.92481C1.25501 8.44981 1.63 8.82481 2.155 8.9748C3.055 9.19981 6.88 9.19981 6.88 9.19981C6.88 9.19981 10.63 9.19981 11.605 8.9748C12.13 8.82481 12.505 8.44981 12.655 7.92481C12.88 6.94981 12.88 4.99981 12.88 4.99981C12.88 4.99981 12.88 3.04981 12.58 2.07481ZM5.68001 6.79981V3.19981L8.83 4.99981L5.68001 6.79981Z" fill="white"/>
</svg>
