<svg width="854" height="576" viewBox="0 0 854 576" fill="#FFF" xmlns="http://www.w3.org/2000/svg">
<path d="M394.804 32.2961C362.569 50.6985 359.47 104.372 389.225 125.33C410.302 140.666 442.537 140.666 463.614 125.33C495.23 103.35 489.03 45.0755 454.936 29.7402C437.578 22.5838 409.682 23.6061 394.804 32.2961ZM452.456 47.1202C466.094 56.8326 469.813 63.4779 469.813 79.8356C469.813 103.861 448.117 126.864 426.42 126.864C404.723 126.864 383.026 103.861 383.026 79.8356C383.026 63.4779 386.746 56.8326 400.384 47.1202C410.302 40.4749 421.46 34.852 426.42 34.852C431.379 34.852 442.537 40.4749 452.456 47.1202Z" fill="#FFF"/>
<path d="M345.212 151.912C317.936 161.624 305.538 182.071 305.538 216.831C305.538 259.77 316.076 258.748 319.176 215.809C322.895 165.714 329.714 162.647 426.42 162.647C523.125 162.647 529.944 165.714 533.664 215.809C537.383 259.259 547.302 259.77 547.302 216.32C547.302 187.183 545.442 181.56 529.324 166.736L511.347 149.867L434.478 148.845C392.945 147.823 352.031 149.356 345.212 151.912Z" fill="#FFF"/>
<path d="M355.13 229.099C355.13 240.345 358.23 249.546 361.329 249.546C365.049 249.546 367.528 240.345 367.528 229.099C367.528 217.853 365.049 208.652 361.329 208.652C358.23 208.652 355.13 217.853 355.13 229.099Z" fill="#FFF"/>
<path d="M485.311 229.099C485.311 240.345 488.411 249.546 491.51 249.546C495.23 249.546 497.709 240.345 497.709 229.099C497.709 217.853 495.23 208.652 491.51 208.652C488.411 208.652 485.311 217.853 485.311 229.099Z" fill="#FFF"/>
<path d="M231.149 287.374V315.488L268.343 326.734L305.538 337.98V377.852C305.538 401.366 308.017 418.235 311.737 418.235C315.456 418.235 317.936 396.765 317.936 364.561V310.888H426.42H534.904V364.561C534.904 396.765 537.383 418.235 541.103 418.235C544.822 418.235 547.302 401.366 547.302 377.852V337.98L577.057 328.779C619.211 315.488 622.311 312.421 620.451 285.84L618.591 262.326L425.18 260.792L231.149 259.77V287.374ZM603.094 290.441C603.094 303.22 599.374 306.798 580.777 313.444C551.021 323.667 548.542 323.156 546.062 309.354C544.202 298.108 543.582 298.108 426.42 298.108H308.637L306.777 309.865C304.918 319.578 301.818 321.622 290.04 319.067C250.986 310.888 243.547 306.287 243.547 290.441V275.105H423.32H603.094V290.441Z" fill="#FFF"/>
<path d="M184.036 398.299C167.298 413.634 167.918 450.439 185.895 464.752C213.791 487.755 257.805 474.464 265.863 441.238C270.203 422.324 256.565 395.743 240.447 390.631C219.99 384.497 195.814 387.564 184.036 398.299ZM238.587 406.478C260.284 422.324 246.646 464.241 219.99 464.241C192.094 464.241 177.217 425.903 198.293 406.989C210.692 395.743 223.71 395.232 238.587 406.478Z" fill="#FFF"/>
<path d="M392.945 400.855C358.85 436.126 398.524 493.378 443.157 473.953C464.234 464.752 472.293 453.506 472.913 433.059C472.913 406.989 453.076 387.564 426.42 387.564C411.542 387.564 402.243 391.143 392.945 400.855ZM448.117 408.012C462.994 420.28 464.234 437.149 450.596 452.995C431.999 475.487 392.325 460.152 392.325 429.992C392.325 416.702 412.162 397.788 426.42 397.788C431.379 397.788 441.298 402.389 448.117 408.012Z" fill="#FFF"/>
<path d="M610.532 391.143C596.274 395.743 583.256 423.858 586.976 441.238C595.035 474.464 639.048 487.755 666.944 464.752C684.921 450.439 685.541 413.634 668.804 398.299C657.645 388.075 629.749 384.497 610.532 391.143ZM653.926 406.478C675.623 422.324 661.985 464.241 635.329 464.241C607.433 464.241 592.555 425.903 613.632 406.989C626.03 395.743 639.048 395.232 653.926 406.478Z" fill="#FFF"/>
<path d="M143.122 494.911C130.723 501.045 117.085 533.25 122.045 543.473C128.244 557.275 138.162 551.652 138.162 534.272C138.162 505.646 151.8 500.023 219.99 500.023C286.32 500.023 299.339 505.646 299.339 534.783C299.339 543.984 302.438 551.141 305.538 551.141C317.316 551.141 312.357 510.758 299.339 500.023C288.18 490.822 278.882 489.8 220.61 489.8C183.416 489.8 148.701 492.355 143.122 494.911Z" fill="#FFF"/>
<path d="M343.352 503.09C329.714 516.892 325.374 551.141 336.533 551.141C340.252 551.141 342.732 546.54 342.732 540.406C342.732 528.649 353.89 509.735 363.809 504.112C367.528 502.068 396.044 500.023 426.419 500.023C457.415 500.023 485.311 502.068 489.03 504.112C498.949 509.735 510.107 528.649 510.107 540.406C510.107 546.54 513.207 551.141 516.306 551.141C527.464 551.141 523.125 516.892 509.487 503.09C497.089 490.311 495.229 489.799 426.419 489.799C357.61 489.799 355.75 490.311 343.352 503.09Z" fill="#FFF"/>
<path d="M553.501 500.023C540.483 510.758 535.524 551.141 547.302 551.141C551.021 551.141 553.501 543.473 553.501 534.272C553.501 505.646 567.139 500.023 635.329 500.023C701.659 500.023 714.677 505.646 714.677 534.783C714.677 551.652 724.596 556.764 730.795 543.473C736.374 532.227 721.496 500.534 708.478 494.911C702.279 491.844 667.564 489.799 631.609 489.799C573.958 489.799 564.039 491.333 553.501 500.023Z" fill="#FFF"/>
</svg>
