<?xml version="1.0" standalone="no"?>
<!DOCTYPE svg PUBLIC "-//W3C//DTD SVG 20010904//EN"
 "http://www.w3.org/TR/2001/REC-SVG-20010904/DTD/svg10.dtd">
<svg version="1.0" xmlns="http://www.w3.org/2000/svg"
 width="512.000000pt" height="512.000000pt" viewBox="0 0 512.000000 512.000000"
 preserveAspectRatio="xMidYMid meet">

<g transform="translate(0.000000,512.000000) scale(0.100000,-0.100000)"
fill="#FFF" stroke="none">
<path d="M2524 4900 c-11 -4 -128 -101 -259 -214 l-240 -206 -395 0 c-438 0
-469 -3 -569 -63 -108 -65 -182 -177 -201 -304 -5 -37 -10 -197 -10 -355 l0
-287 -309 -267 c-221 -189 -313 -275 -320 -296 -14 -39 -15 -2234 -1 -2326 27
-188 174 -335 362 -362 87 -13 3885 -13 3962 0 183 30 326 173 356 356 14 86
13 2292 -1 2332 -8 23 -95 104 -319 297 l-308 264 -4 333 c-3 311 -5 337 -25
391 -43 115 -138 214 -250 258 -57 23 -66 24 -480 29 l-422 5 -227 195 c-272
234 -285 242 -340 220z m1411 -657 c50 -27 80 -58 100 -105 13 -33 15 -141 15
-867 l0 -830 -742 -565 c-409 -311 -745 -566 -748 -566 -3 0 -339 255 -747
566 l-743 565 0 835 c0 815 0 836 20 874 24 47 76 91 127 107 29 9 367 11
1358 10 l1320 -2 40 -22z m-3087 -1483 l-3 -139 -165 125 c-91 69 -169 129
-173 134 -5 4 69 74 165 155 l173 148 3 -141 c1 -78 1 -205 0 -282z m701 -955
c525 -400 968 -732 983 -737 18 -7 38 -7 57 0 21 8 1451 1087 1794 1355 l39
30 -6 -793 c-6 -779 -7 -795 -27 -837 -22 -46 -64 -84 -114 -103 -33 -13 -291
-19 -816 -20 l-315 -1 -134 -134 -135 -135 -66 0 -67 0 137 135 136 135 -36 0
c-34 0 -46 -10 -164 -135 l-127 -135 -76 0 -77 0 135 135 c116 116 131 135
109 135 -19 0 -50 -26 -125 -103 -55 -56 -106 -117 -113 -134 l-13 -33 -957 0
c-639 0 -969 4 -994 11 -52 14 -122 84 -136 134 -8 28 -11 351 -11 1063 l0
1023 83 -64 c45 -35 512 -391 1036 -792z m1611 -1231 c-67 -143 -68 -144 -149
-144 l-66 0 130 130 c71 71 131 128 132 126 2 -2 -19 -52 -47 -112z"/>
<path  d="M2464 3825 c-230 -41 -406 -234 -430 -471 -10 -93 24 -144 97 -146
35 -1 70 16 87 43 7 10 17 51 22 89 17 121 78 208 178 257 49 24 69 28 142 28
73 0 93 -4 142 -28 107 -53 169 -146 176 -268 8 -138 -40 -224 -174 -314 -180
-121 -244 -247 -244 -481 0 -114 1 -123 24 -147 44 -47 108 -48 151 -1 20 22
23 37 27 142 7 165 42 240 147 309 133 87 199 165 248 289 37 96 39 246 5 346
-87 253 -337 401 -598 353z"/>
<path d="M2515 2118 c-61 -33 -73 -107 -27 -159 61 -68 172 -23 172 69 -1 75
-81 125 -145 90z"/>
</g>
</svg>
